<mxfile host="app.diagrams.net" agent="Mozilla/5.0 (Macintosh; Intel Mac OS X 10_15_7) AppleWebKit/537.36 (KHTML, like Gecko) Chrome/137.0.0.0 Safari/537.36 Edg/137.0.0.0" version="27.1.3">
  <diagram name="Page-1" id="NUJuaS-ZwYqh6WON_C9J">
    <mxGraphModel dx="2721" dy="945" grid="1" gridSize="10" guides="1" tooltips="1" connect="1" arrows="1" fold="1" page="1" pageScale="1" pageWidth="827" pageHeight="1169" math="0" shadow="0">
      <root>
        <mxCell id="0" />
        <mxCell id="1" parent="0" />
        <mxCell id="871WRmUGjhYebZExlWMB-1" value="" style="whiteSpace=wrap;html=1;aspect=fixed;" parent="1" vertex="1">
          <mxGeometry x="170" y="180" width="810" height="810" as="geometry" />
        </mxCell>
        <mxCell id="871WRmUGjhYebZExlWMB-2" value="&lt;b&gt;&lt;font style=&quot;font-size: 18px;&quot;&gt;E-Commerce Web Application&lt;/font&gt;&lt;/b&gt;" style="text;html=1;align=center;verticalAlign=middle;whiteSpace=wrap;rounded=0;" parent="1" vertex="1">
          <mxGeometry x="492.5" y="200" width="165" height="30" as="geometry" />
        </mxCell>
        <mxCell id="871WRmUGjhYebZExlWMB-10" style="rounded=0;orthogonalLoop=1;jettySize=auto;html=1;" parent="1" source="yoeaRte0TlR1JR3j0dsm-1" target="871WRmUGjhYebZExlWMB-8" edge="1">
          <mxGeometry relative="1" as="geometry">
            <mxPoint x="85" y="280" as="sourcePoint" />
          </mxGeometry>
        </mxCell>
        <mxCell id="yoeaRte0TlR1JR3j0dsm-4" style="edgeStyle=orthogonalEdgeStyle;rounded=0;orthogonalLoop=1;jettySize=auto;html=1;endArrow=block;endFill=0;" edge="1" parent="1" source="871WRmUGjhYebZExlWMB-4">
          <mxGeometry relative="1" as="geometry">
            <mxPoint x="10" y="670" as="sourcePoint" />
            <mxPoint x="5" y="420" as="targetPoint" />
          </mxGeometry>
        </mxCell>
        <mxCell id="871WRmUGjhYebZExlWMB-4" value="Logged In User" style="shape=umlActor;verticalLabelPosition=bottom;verticalAlign=top;html=1;outlineConnect=0;" parent="1" vertex="1">
          <mxGeometry x="-10" y="710" width="30" height="60" as="geometry" />
        </mxCell>
        <mxCell id="871WRmUGjhYebZExlWMB-5" value="Administrator" style="shape=umlActor;verticalLabelPosition=bottom;verticalAlign=top;html=1;outlineConnect=0;" parent="1" vertex="1">
          <mxGeometry x="1090" y="555" width="30" height="60" as="geometry" />
        </mxCell>
        <mxCell id="871WRmUGjhYebZExlWMB-11" style="rounded=0;orthogonalLoop=1;jettySize=auto;html=1;dashed=1;" parent="1" source="871WRmUGjhYebZExlWMB-13" target="871WRmUGjhYebZExlWMB-8" edge="1">
          <mxGeometry relative="1" as="geometry">
            <mxPoint x="470" y="359.5" as="sourcePoint" />
            <mxPoint x="340" y="359.5" as="targetPoint" />
          </mxGeometry>
        </mxCell>
        <mxCell id="871WRmUGjhYebZExlWMB-12" value="&amp;lt;&amp;lt;extend&amp;gt;&amp;gt;" style="edgeLabel;html=1;align=center;verticalAlign=middle;resizable=0;points=[];" parent="871WRmUGjhYebZExlWMB-11" vertex="1" connectable="0">
          <mxGeometry x="-0.0308" y="1" relative="1" as="geometry">
            <mxPoint y="-1" as="offset" />
          </mxGeometry>
        </mxCell>
        <mxCell id="871WRmUGjhYebZExlWMB-8" value="Browse products" style="ellipse;whiteSpace=wrap;html=1;" parent="1" vertex="1">
          <mxGeometry x="190" y="260" width="90" height="60" as="geometry" />
        </mxCell>
        <mxCell id="871WRmUGjhYebZExlWMB-9" value="Purchase product" style="ellipse;whiteSpace=wrap;html=1;" parent="1" vertex="1">
          <mxGeometry x="840" y="260" width="90" height="60" as="geometry" />
        </mxCell>
        <mxCell id="871WRmUGjhYebZExlWMB-13" value="View product details" style="ellipse;whiteSpace=wrap;html=1;" parent="1" vertex="1">
          <mxGeometry x="400" y="260" width="90" height="60" as="geometry" />
        </mxCell>
        <mxCell id="871WRmUGjhYebZExlWMB-15" style="rounded=0;orthogonalLoop=1;jettySize=auto;html=1;dashed=1;" parent="1" source="871WRmUGjhYebZExlWMB-9" target="871WRmUGjhYebZExlWMB-23" edge="1">
          <mxGeometry relative="1" as="geometry">
            <mxPoint x="630" y="359.5" as="sourcePoint" />
            <mxPoint x="970" y="220" as="targetPoint" />
          </mxGeometry>
        </mxCell>
        <mxCell id="871WRmUGjhYebZExlWMB-16" value="&amp;lt;&amp;lt;extend&amp;gt;&amp;gt;" style="edgeLabel;html=1;align=center;verticalAlign=middle;resizable=0;points=[];" parent="871WRmUGjhYebZExlWMB-15" vertex="1" connectable="0">
          <mxGeometry x="-0.0308" y="1" relative="1" as="geometry">
            <mxPoint y="-1" as="offset" />
          </mxGeometry>
        </mxCell>
        <mxCell id="871WRmUGjhYebZExlWMB-20" value="Add/Use address information" style="ellipse;whiteSpace=wrap;html=1;" parent="1" vertex="1">
          <mxGeometry x="720" y="370" width="90" height="60" as="geometry" />
        </mxCell>
        <mxCell id="871WRmUGjhYebZExlWMB-21" style="rounded=0;orthogonalLoop=1;jettySize=auto;html=1;dashed=1;" parent="1" source="871WRmUGjhYebZExlWMB-9" target="871WRmUGjhYebZExlWMB-20" edge="1">
          <mxGeometry relative="1" as="geometry">
            <mxPoint x="710" y="325" as="sourcePoint" />
            <mxPoint x="640" y="395" as="targetPoint" />
          </mxGeometry>
        </mxCell>
        <mxCell id="871WRmUGjhYebZExlWMB-22" value="&amp;lt;&amp;lt;include&amp;gt;&amp;gt;" style="edgeLabel;html=1;align=center;verticalAlign=middle;resizable=0;points=[];" parent="871WRmUGjhYebZExlWMB-21" vertex="1" connectable="0">
          <mxGeometry x="-0.0308" y="1" relative="1" as="geometry">
            <mxPoint y="-1" as="offset" />
          </mxGeometry>
        </mxCell>
        <mxCell id="871WRmUGjhYebZExlWMB-23" value="Add product to cart" style="ellipse;whiteSpace=wrap;html=1;" parent="1" vertex="1">
          <mxGeometry x="630" y="260" width="90" height="60" as="geometry" />
        </mxCell>
        <mxCell id="871WRmUGjhYebZExlWMB-24" style="rounded=0;orthogonalLoop=1;jettySize=auto;html=1;dashed=1;" parent="1" source="871WRmUGjhYebZExlWMB-23" target="871WRmUGjhYebZExlWMB-13" edge="1">
          <mxGeometry relative="1" as="geometry">
            <mxPoint x="470" y="300" as="sourcePoint" />
            <mxPoint x="350" y="300" as="targetPoint" />
          </mxGeometry>
        </mxCell>
        <mxCell id="871WRmUGjhYebZExlWMB-25" value="&amp;lt;&amp;lt;extend&amp;gt;&amp;gt;" style="edgeLabel;html=1;align=center;verticalAlign=middle;resizable=0;points=[];" parent="871WRmUGjhYebZExlWMB-24" vertex="1" connectable="0">
          <mxGeometry x="-0.0308" y="1" relative="1" as="geometry">
            <mxPoint y="-1" as="offset" />
          </mxGeometry>
        </mxCell>
        <mxCell id="871WRmUGjhYebZExlWMB-26" value="Signup/Login" style="ellipse;whiteSpace=wrap;html=1;" parent="1" vertex="1">
          <mxGeometry x="330" y="340" width="90" height="60" as="geometry" />
        </mxCell>
        <mxCell id="871WRmUGjhYebZExlWMB-27" style="rounded=0;orthogonalLoop=1;jettySize=auto;html=1;" parent="1" source="yoeaRte0TlR1JR3j0dsm-1" target="871WRmUGjhYebZExlWMB-26" edge="1">
          <mxGeometry relative="1" as="geometry">
            <mxPoint x="100" y="367" as="sourcePoint" />
            <mxPoint x="208" y="317" as="targetPoint" />
          </mxGeometry>
        </mxCell>
        <mxCell id="871WRmUGjhYebZExlWMB-28" value="Access account settings" style="ellipse;whiteSpace=wrap;html=1;" parent="1" vertex="1">
          <mxGeometry x="190" y="710" width="90" height="60" as="geometry" />
        </mxCell>
        <mxCell id="871WRmUGjhYebZExlWMB-29" style="rounded=0;orthogonalLoop=1;jettySize=auto;html=1;" parent="1" source="871WRmUGjhYebZExlWMB-4" target="871WRmUGjhYebZExlWMB-28" edge="1">
          <mxGeometry relative="1" as="geometry">
            <mxPoint x="110" y="375" as="sourcePoint" />
            <mxPoint x="205" y="407" as="targetPoint" />
          </mxGeometry>
        </mxCell>
        <mxCell id="871WRmUGjhYebZExlWMB-30" value="Change name" style="ellipse;whiteSpace=wrap;html=1;" parent="1" vertex="1">
          <mxGeometry x="400" y="710" width="90" height="60" as="geometry" />
        </mxCell>
        <mxCell id="871WRmUGjhYebZExlWMB-31" style="rounded=0;orthogonalLoop=1;jettySize=auto;html=1;dashed=1;" parent="1" source="871WRmUGjhYebZExlWMB-30" target="871WRmUGjhYebZExlWMB-28" edge="1">
          <mxGeometry relative="1" as="geometry">
            <mxPoint x="410" y="300" as="sourcePoint" />
            <mxPoint x="290" y="300" as="targetPoint" />
          </mxGeometry>
        </mxCell>
        <mxCell id="871WRmUGjhYebZExlWMB-32" value="&amp;lt;&amp;lt;extend&amp;gt;&amp;gt;" style="edgeLabel;html=1;align=center;verticalAlign=middle;resizable=0;points=[];" parent="871WRmUGjhYebZExlWMB-31" vertex="1" connectable="0">
          <mxGeometry x="-0.0308" y="1" relative="1" as="geometry">
            <mxPoint y="-1" as="offset" />
          </mxGeometry>
        </mxCell>
        <mxCell id="871WRmUGjhYebZExlWMB-33" value="Change password" style="ellipse;whiteSpace=wrap;html=1;" parent="1" vertex="1">
          <mxGeometry x="340" y="840" width="90" height="60" as="geometry" />
        </mxCell>
        <mxCell id="871WRmUGjhYebZExlWMB-34" style="rounded=0;orthogonalLoop=1;jettySize=auto;html=1;dashed=1;" parent="1" source="871WRmUGjhYebZExlWMB-33" target="871WRmUGjhYebZExlWMB-28" edge="1">
          <mxGeometry relative="1" as="geometry">
            <mxPoint x="418" y="447" as="sourcePoint" />
            <mxPoint x="282" y="513" as="targetPoint" />
          </mxGeometry>
        </mxCell>
        <mxCell id="871WRmUGjhYebZExlWMB-35" value="&amp;lt;&amp;lt;extend&amp;gt;&amp;gt;" style="edgeLabel;html=1;align=center;verticalAlign=middle;resizable=0;points=[];" parent="871WRmUGjhYebZExlWMB-34" vertex="1" connectable="0">
          <mxGeometry x="-0.0308" y="1" relative="1" as="geometry">
            <mxPoint y="-1" as="offset" />
          </mxGeometry>
        </mxCell>
        <mxCell id="871WRmUGjhYebZExlWMB-36" value="Delete account" style="ellipse;whiteSpace=wrap;html=1;" parent="1" vertex="1">
          <mxGeometry x="190" y="880" width="90" height="60" as="geometry" />
        </mxCell>
        <mxCell id="871WRmUGjhYebZExlWMB-37" style="rounded=0;orthogonalLoop=1;jettySize=auto;html=1;dashed=1;" parent="1" source="871WRmUGjhYebZExlWMB-36" target="871WRmUGjhYebZExlWMB-28" edge="1">
          <mxGeometry relative="1" as="geometry">
            <mxPoint x="410" y="530" as="sourcePoint" />
            <mxPoint x="290" y="530" as="targetPoint" />
          </mxGeometry>
        </mxCell>
        <mxCell id="871WRmUGjhYebZExlWMB-38" value="&amp;lt;&amp;lt;extend&amp;gt;&amp;gt;" style="edgeLabel;html=1;align=center;verticalAlign=middle;resizable=0;points=[];" parent="871WRmUGjhYebZExlWMB-37" vertex="1" connectable="0">
          <mxGeometry x="-0.0308" y="1" relative="1" as="geometry">
            <mxPoint y="-1" as="offset" />
          </mxGeometry>
        </mxCell>
        <mxCell id="871WRmUGjhYebZExlWMB-39" value="View orders" style="ellipse;whiteSpace=wrap;html=1;" parent="1" vertex="1">
          <mxGeometry x="324" y="630" width="90" height="60" as="geometry" />
        </mxCell>
        <mxCell id="871WRmUGjhYebZExlWMB-41" style="rounded=0;orthogonalLoop=1;jettySize=auto;html=1;" parent="1" source="871WRmUGjhYebZExlWMB-4" target="871WRmUGjhYebZExlWMB-39" edge="1">
          <mxGeometry relative="1" as="geometry">
            <mxPoint y="552" as="sourcePoint" />
            <mxPoint x="210" y="439" as="targetPoint" />
          </mxGeometry>
        </mxCell>
        <mxCell id="871WRmUGjhYebZExlWMB-48" value="Add/edit/&lt;div&gt;delete address information&lt;/div&gt;" style="ellipse;whiteSpace=wrap;html=1;" parent="1" vertex="1">
          <mxGeometry x="324" y="530" width="90" height="60" as="geometry" />
        </mxCell>
        <mxCell id="871WRmUGjhYebZExlWMB-54" value="Login" style="ellipse;whiteSpace=wrap;html=1;" parent="1" vertex="1">
          <mxGeometry x="850" y="435" width="90" height="60" as="geometry" />
        </mxCell>
        <mxCell id="871WRmUGjhYebZExlWMB-55" style="rounded=0;orthogonalLoop=1;jettySize=auto;html=1;" parent="1" source="871WRmUGjhYebZExlWMB-5" target="871WRmUGjhYebZExlWMB-54" edge="1">
          <mxGeometry relative="1" as="geometry">
            <mxPoint x="-10" y="579" as="sourcePoint" />
            <mxPoint x="222" y="326" as="targetPoint" />
          </mxGeometry>
        </mxCell>
        <mxCell id="871WRmUGjhYebZExlWMB-56" value="View customer orders" style="ellipse;whiteSpace=wrap;html=1;" parent="1" vertex="1">
          <mxGeometry x="840" y="700" width="90" height="60" as="geometry" />
        </mxCell>
        <mxCell id="871WRmUGjhYebZExlWMB-57" style="rounded=0;orthogonalLoop=1;jettySize=auto;html=1;" parent="1" source="871WRmUGjhYebZExlWMB-5" target="871WRmUGjhYebZExlWMB-56" edge="1">
          <mxGeometry relative="1" as="geometry">
            <mxPoint x="1100" y="593" as="sourcePoint" />
            <mxPoint x="939" y="575" as="targetPoint" />
          </mxGeometry>
        </mxCell>
        <mxCell id="871WRmUGjhYebZExlWMB-58" value="View customer account details" style="ellipse;whiteSpace=wrap;html=1;" parent="1" vertex="1">
          <mxGeometry x="730" y="860" width="90" height="60" as="geometry" />
        </mxCell>
        <mxCell id="871WRmUGjhYebZExlWMB-62" style="rounded=0;orthogonalLoop=1;jettySize=auto;html=1;dashed=1;" parent="1" source="871WRmUGjhYebZExlWMB-56" target="871WRmUGjhYebZExlWMB-58" edge="1">
          <mxGeometry relative="1" as="geometry">
            <mxPoint x="895" y="330" as="sourcePoint" />
            <mxPoint x="895" y="450" as="targetPoint" />
          </mxGeometry>
        </mxCell>
        <mxCell id="871WRmUGjhYebZExlWMB-63" value="&amp;lt;&amp;lt;include&amp;gt;&amp;gt;" style="edgeLabel;html=1;align=center;verticalAlign=middle;resizable=0;points=[];" parent="871WRmUGjhYebZExlWMB-62" vertex="1" connectable="0">
          <mxGeometry x="-0.0308" y="1" relative="1" as="geometry">
            <mxPoint y="-1" as="offset" />
          </mxGeometry>
        </mxCell>
        <mxCell id="871WRmUGjhYebZExlWMB-64" value="View customer address details" style="ellipse;whiteSpace=wrap;html=1;" parent="1" vertex="1">
          <mxGeometry x="657.5" y="780" width="90" height="60" as="geometry" />
        </mxCell>
        <mxCell id="871WRmUGjhYebZExlWMB-65" style="rounded=0;orthogonalLoop=1;jettySize=auto;html=1;dashed=1;" parent="1" source="871WRmUGjhYebZExlWMB-56" target="871WRmUGjhYebZExlWMB-64" edge="1">
          <mxGeometry relative="1" as="geometry">
            <mxPoint x="895" y="800" as="sourcePoint" />
            <mxPoint x="895" y="900" as="targetPoint" />
          </mxGeometry>
        </mxCell>
        <mxCell id="871WRmUGjhYebZExlWMB-66" value="&amp;lt;&amp;lt;include&amp;gt;&amp;gt;" style="edgeLabel;html=1;align=center;verticalAlign=middle;resizable=0;points=[];" parent="871WRmUGjhYebZExlWMB-65" vertex="1" connectable="0">
          <mxGeometry x="-0.0308" y="1" relative="1" as="geometry">
            <mxPoint y="-1" as="offset" />
          </mxGeometry>
        </mxCell>
        <mxCell id="871WRmUGjhYebZExlWMB-67" value="Add/edit/delete categories" style="ellipse;whiteSpace=wrap;html=1;" parent="1" vertex="1">
          <mxGeometry x="730" y="510" width="90" height="60" as="geometry" />
        </mxCell>
        <mxCell id="871WRmUGjhYebZExlWMB-68" style="rounded=0;orthogonalLoop=1;jettySize=auto;html=1;" parent="1" source="871WRmUGjhYebZExlWMB-5" target="871WRmUGjhYebZExlWMB-67" edge="1">
          <mxGeometry relative="1" as="geometry">
            <mxPoint x="1100" y="593" as="sourcePoint" />
            <mxPoint x="939" y="575" as="targetPoint" />
          </mxGeometry>
        </mxCell>
        <mxCell id="871WRmUGjhYebZExlWMB-69" value="Add/edit/delete products" style="ellipse;whiteSpace=wrap;html=1;" parent="1" vertex="1">
          <mxGeometry x="730" y="600" width="90" height="60" as="geometry" />
        </mxCell>
        <mxCell id="871WRmUGjhYebZExlWMB-70" style="rounded=0;orthogonalLoop=1;jettySize=auto;html=1;" parent="1" source="871WRmUGjhYebZExlWMB-5" target="871WRmUGjhYebZExlWMB-69" edge="1">
          <mxGeometry relative="1" as="geometry">
            <mxPoint x="1100" y="595" as="sourcePoint" />
            <mxPoint x="780" y="599" as="targetPoint" />
          </mxGeometry>
        </mxCell>
        <mxCell id="871WRmUGjhYebZExlWMB-71" value="Add/edit/delete product image" style="ellipse;whiteSpace=wrap;html=1;" parent="1" vertex="1">
          <mxGeometry x="530" y="600" width="90" height="60" as="geometry" />
        </mxCell>
        <mxCell id="871WRmUGjhYebZExlWMB-72" style="rounded=0;orthogonalLoop=1;jettySize=auto;html=1;dashed=1;" parent="1" source="871WRmUGjhYebZExlWMB-69" target="871WRmUGjhYebZExlWMB-71" edge="1">
          <mxGeometry relative="1" as="geometry">
            <mxPoint x="870" y="795" as="sourcePoint" />
            <mxPoint x="800" y="865" as="targetPoint" />
          </mxGeometry>
        </mxCell>
        <mxCell id="871WRmUGjhYebZExlWMB-73" value="&amp;lt;&amp;lt;include&amp;gt;&amp;gt;" style="edgeLabel;html=1;align=center;verticalAlign=middle;resizable=0;points=[];" parent="871WRmUGjhYebZExlWMB-72" vertex="1" connectable="0">
          <mxGeometry x="-0.0308" y="1" relative="1" as="geometry">
            <mxPoint y="-1" as="offset" />
          </mxGeometry>
        </mxCell>
        <mxCell id="871WRmUGjhYebZExlWMB-74" value="Add/remove featured product" style="ellipse;whiteSpace=wrap;html=1;" parent="1" vertex="1">
          <mxGeometry x="640" y="680" width="90" height="60" as="geometry" />
        </mxCell>
        <mxCell id="871WRmUGjhYebZExlWMB-75" style="rounded=0;orthogonalLoop=1;jettySize=auto;html=1;" parent="1" source="871WRmUGjhYebZExlWMB-5" target="871WRmUGjhYebZExlWMB-74" edge="1">
          <mxGeometry relative="1" as="geometry">
            <mxPoint x="1100" y="600" as="sourcePoint" />
            <mxPoint x="826" y="687" as="targetPoint" />
          </mxGeometry>
        </mxCell>
        <mxCell id="aqTZNnMcOcThDMu3uwfW-1" value="Mark order as complete" style="ellipse;whiteSpace=wrap;html=1;" parent="1" vertex="1">
          <mxGeometry x="840" y="900" width="90" height="60" as="geometry" />
        </mxCell>
        <mxCell id="aqTZNnMcOcThDMu3uwfW-2" style="rounded=0;orthogonalLoop=1;jettySize=auto;html=1;dashed=1;" parent="1" source="871WRmUGjhYebZExlWMB-56" target="aqTZNnMcOcThDMu3uwfW-1" edge="1">
          <mxGeometry relative="1" as="geometry">
            <mxPoint x="879" y="798" as="sourcePoint" />
            <mxPoint x="821" y="902" as="targetPoint" />
          </mxGeometry>
        </mxCell>
        <mxCell id="aqTZNnMcOcThDMu3uwfW-3" value="&amp;lt;&amp;lt;extend&amp;gt;&amp;gt;" style="edgeLabel;html=1;align=center;verticalAlign=middle;resizable=0;points=[];" parent="aqTZNnMcOcThDMu3uwfW-2" vertex="1" connectable="0">
          <mxGeometry x="-0.0308" y="1" relative="1" as="geometry">
            <mxPoint y="-1" as="offset" />
          </mxGeometry>
        </mxCell>
        <mxCell id="hIUJofqgAruv18IyJlSD-1" style="rounded=0;orthogonalLoop=1;jettySize=auto;html=1;" parent="1" source="871WRmUGjhYebZExlWMB-4" target="871WRmUGjhYebZExlWMB-48" edge="1">
          <mxGeometry relative="1" as="geometry">
            <mxPoint x="-10" y="590" as="sourcePoint" />
            <mxPoint x="285" y="493" as="targetPoint" />
          </mxGeometry>
        </mxCell>
        <mxCell id="yoeaRte0TlR1JR3j0dsm-1" value="Guest" style="shape=umlActor;verticalLabelPosition=bottom;verticalAlign=top;html=1;outlineConnect=0;" vertex="1" parent="1">
          <mxGeometry x="-10" y="340" width="30" height="60" as="geometry" />
        </mxCell>
        <mxCell id="yoeaRte0TlR1JR3j0dsm-5" value="Logout" style="ellipse;whiteSpace=wrap;html=1;" vertex="1" parent="1">
          <mxGeometry x="210" y="510" width="90" height="60" as="geometry" />
        </mxCell>
        <mxCell id="yoeaRte0TlR1JR3j0dsm-6" style="rounded=0;orthogonalLoop=1;jettySize=auto;html=1;" edge="1" parent="1" source="871WRmUGjhYebZExlWMB-4" target="yoeaRte0TlR1JR3j0dsm-5">
          <mxGeometry relative="1" as="geometry">
            <mxPoint x="100" y="845" as="sourcePoint" />
            <mxPoint x="413" y="690" as="targetPoint" />
          </mxGeometry>
        </mxCell>
        <mxCell id="yoeaRte0TlR1JR3j0dsm-7" value="Send contact email" style="ellipse;whiteSpace=wrap;html=1;" vertex="1" parent="1">
          <mxGeometry x="330" y="430" width="90" height="60" as="geometry" />
        </mxCell>
        <mxCell id="yoeaRte0TlR1JR3j0dsm-8" style="rounded=0;orthogonalLoop=1;jettySize=auto;html=1;" edge="1" parent="1" source="yoeaRte0TlR1JR3j0dsm-1" target="yoeaRte0TlR1JR3j0dsm-7">
          <mxGeometry relative="1" as="geometry">
            <mxPoint x="180" y="393" as="sourcePoint" />
            <mxPoint x="371" y="370" as="targetPoint" />
          </mxGeometry>
        </mxCell>
      </root>
    </mxGraphModel>
  </diagram>
</mxfile>
